# xmcd CD database file
#
# Track frame offsets:
#	150
#	48796
#	62851
#	73737
#	87379
#	119541
#	132066
#	146891
#	158698
#
# Disc length: 2266 seconds
#
# Revision: 0
# Processed by: cddbd v1.5.2PL0 Copyright (c) Steve Scherf et al.
# Submitted via: CDex 1.70beta2
#
DISCID=8108d809
DTITLE=Adderley, Julian Cannonball - The Big E
DYEAR=1955
DGENRE=Jazz
TTITLE0=Big E
TTITLE1=Two Sleepy People
TTITLE2=I've Never Been In Love Before
TTITLE3=You Are Too Beautifull
TTITLE4=Caribbean Beautie
TTITLE5=I'll Never Stop Loving You
TTITLE6=(I'm Afraid) The Masquerade Is Over
TTITLE7=The Surrey With The Fringe On Top
TTITLE8=I Cover The Waterfront
EXTD=YEAR: 1955
EXTT0=
EXTT1=
EXTT2=
EXTT3=
EXTT4=
EXTT5=
EXTT6=
EXTT7=
EXTT8=
PLAYORDER=
